<svg width="83" height="71" viewBox="0 0 83 71" fill="none" xmlns="http://www.w3.org/2000/svg">
<path d="M65.9825 8.16012C63.9304 8.16012 62.2605 6.49018 62.2605 4.4381C62.2605 2.38698 63.9295 0.717041 65.9825 0.717041C68.0336 0.717041 69.7036 2.38698 69.7036 4.4381C69.7036 6.49018 68.0336 8.16012 65.9825 8.16012Z" fill="#F2F2F2"/>
<path d="M80.3193 48.7918C78.8404 48.7918 77.6386 47.5881 77.6386 46.1102C77.6386 44.6313 78.8404 43.4285 80.3193 43.4285C81.7972 43.4285 83 44.6313 83 46.1102C83 47.5881 81.7972 48.7918 80.3193 48.7918Z" fill="#F2F2F2"/>
<path d="M15.5052 22.2675C14.0247 22.2675 12.8245 21.0673 12.8245 19.5868C12.8245 18.1063 14.0247 16.9061 15.5052 16.9061C16.9857 16.9061 18.1859 18.1063 18.1859 19.5868C18.1859 21.0673 16.9857 22.2675 15.5052 22.2675Z" fill="#F2F2F2"/>
<path d="M2.71447 47.6093C1.23656 47.6093 0.0328254 46.4056 0.0328254 44.9276C0.0328254 43.4488 1.23656 42.246 2.71447 42.246C4.19334 42.246 5.39612 43.4488 5.39612 44.9276C5.39612 46.4065 4.19334 47.6093 2.71447 47.6093Z" fill="#F2F2F2"/>
<path d="M62.8892 29.8607L64.8648 33.2818L60.1349 36.0121L65.5995 38.4206L64.0069 42.0356L55.8942 38.4597L52.624 40.3484L58.0905 42.7597C58.807 43.076 59.2684 43.7839 59.2684 44.5672C59.2684 45.3487 58.806 46.0595 58.0895 46.3748L52.625 48.7832L55.8942 50.67L64.0069 47.097L65.5995 50.713L60.1359 53.1204L64.8648 55.8498L62.8892 59.2719L58.1593 56.5415L58.8041 62.479L54.8777 62.906L53.9204 54.0939L50.6493 52.2043L51.2951 58.1436C51.3802 58.9213 50.9971 59.6769 50.3188 60.0686C50.0121 60.2454 49.672 60.3333 49.3319 60.3333C48.9201 60.3333 48.5103 60.2033 48.1645 59.9511L43.3448 56.4221V60.1986L50.4984 65.4329L48.1654 68.6209L43.3448 65.0937V70.5574H39.3935V65.0957L34.5747 68.6209L32.2408 65.4329L39.3935 60.1986V56.4211L34.5747 59.9502C33.9442 60.4107 33.0997 60.4575 32.4195 60.0677C31.7421 59.6769 31.359 58.9213 31.4441 58.1427L32.0889 52.2033L28.8159 54.093L27.8587 62.9051L23.9322 62.478L24.5771 56.5425L19.8481 59.2709L17.8725 55.8489L22.6014 53.1195L17.1378 50.712L18.7304 47.096L26.8431 50.669L30.1133 48.7803L24.6497 46.3728C23.9332 46.0576 23.4708 45.3478 23.4708 44.5653C23.4708 43.7829 23.9332 43.074 24.6497 42.7578L30.1133 40.3465L26.8422 38.4578L18.7304 42.0337L17.1378 38.4187L22.6024 36.0102L17.8725 33.2789L19.8481 29.8578L24.578 32.5882L23.9341 26.6498L27.8615 26.2237L28.8159 35.0358L32.0889 36.9255L31.4441 30.9861C31.3581 30.2084 31.7421 29.4537 32.4195 29.062C33.0978 28.6722 33.9423 28.7162 34.5747 29.1795L39.3935 32.7076V28.9302L32.2408 23.6968L34.5747 20.5079L39.3935 24.0341V18.5724H43.3448V24.035L48.1654 20.5079L50.4984 23.6968L43.3448 28.9311V32.7076L48.1645 29.1795C48.7969 28.7162 49.6405 28.6722 50.3188 29.062C50.9971 29.4537 51.3802 30.2084 51.2951 30.9861L50.6493 36.9255L53.9204 35.0367L54.8777 26.2247L58.8041 26.6517L58.1593 32.5892L62.8892 29.8607ZM52.3957 44.5672L48.3832 42.797L45.3195 44.5653L48.3842 46.3346L52.3957 44.5672ZM46.8824 54.1159L46.4086 49.7567L43.3438 47.9874V51.5231L46.8824 54.1159ZM35.8549 54.1159L39.3916 51.524V47.9883L36.3268 49.7567L35.8549 54.1159ZM30.3426 44.5672L34.3521 46.3346L37.4159 44.5653L34.3521 42.797L30.3426 44.5672ZM35.8549 35.0157L36.3268 39.375L39.3916 41.1443V37.6057L35.8549 35.0157ZM46.8824 35.0148L43.3429 37.6057V41.1433L46.4076 39.373L46.8824 35.0148Z" fill="#F2F2F2"/>
</svg>
